<mxfile host="app.diagrams.net" modified="2023-08-09T08:51:27.862Z" agent="Mozilla/5.0 (Macintosh; Intel Mac OS X 10_15_7) AppleWebKit/605.1.15 (KHTML, like Gecko) Version/16.5.1 Safari/605.1.15" etag="ojxSAl-3FDjOwwjVx_eO" version="21.6.7" type="github">
  <diagram name="Page-1" id="qTkOHG_VI36buKrNTlcI">
    <mxGraphModel dx="2069" dy="827" grid="1" gridSize="10" guides="1" tooltips="1" connect="1" arrows="1" fold="1" page="1" pageScale="1" pageWidth="827" pageHeight="1169" math="0" shadow="0">
      <root>
        <mxCell id="0" />
        <mxCell id="1" parent="0" />
        <mxCell id="_BoWQbxB6357jRyfIxYQ-1" value="RunProcessor" style="rounded=0;whiteSpace=wrap;html=1;" parent="1" vertex="1">
          <mxGeometry x="360" y="110" width="200" height="130" as="geometry" />
        </mxCell>
        <mxCell id="v7NtXw_RP57qyXQWOOVx-2" value="create Internal Kafka Topics" style="rounded=0;whiteSpace=wrap;html=1;" vertex="1" parent="1">
          <mxGeometry x="400" y="320" width="120" height="80" as="geometry" />
        </mxCell>
        <mxCell id="v7NtXw_RP57qyXQWOOVx-3" value="store Manifest into Definition instance" style="rounded=0;whiteSpace=wrap;html=1;" vertex="1" parent="1">
          <mxGeometry x="200" y="320" width="120" height="80" as="geometry" />
        </mxCell>
        <mxCell id="v7NtXw_RP57qyXQWOOVx-4" value="create Persistence Service isntance" style="rounded=0;whiteSpace=wrap;html=1;" vertex="1" parent="1">
          <mxGeometry x="600" y="320" width="120" height="80" as="geometry" />
        </mxCell>
        <mxCell id="v7NtXw_RP57qyXQWOOVx-5" value="create CrossFunction" style="rounded=0;whiteSpace=wrap;html=1;" vertex="1" parent="1">
          <mxGeometry y="320" width="120" height="80" as="geometry" />
        </mxCell>
        <mxCell id="v7NtXw_RP57qyXQWOOVx-6" value="create ProcessFunction" style="rounded=0;whiteSpace=wrap;html=1;" vertex="1" parent="1">
          <mxGeometry x="800" y="320" width="120" height="80" as="geometry" />
        </mxCell>
        <mxCell id="v7NtXw_RP57qyXQWOOVx-7" value="" style="rounded=0;whiteSpace=wrap;html=1;" vertex="1" parent="1">
          <mxGeometry x="1000" y="320" width="120" height="80" as="geometry" />
        </mxCell>
        <mxCell id="v7NtXw_RP57qyXQWOOVx-8" value="setUp Metrics" style="rounded=0;whiteSpace=wrap;html=1;" vertex="1" parent="1">
          <mxGeometry x="-200" y="320" width="120" height="80" as="geometry" />
        </mxCell>
      </root>
    </mxGraphModel>
  </diagram>
</mxfile>
